<!-- Generated by IcoMoon.io -->
<svg version="1.1" xmlns="http://www.w3.org/2000/svg" width="32" height="32" viewBox="0 0 32 32">
<title>cards</title>
<path d="M30.41 11.736l-11.414-3.061-1.998-7.454c-0.167-0.623-0.836-0.984-1.492-0.811l-13.916 3.729c-0.656 0.175-1.052 0.825-0.885 1.447l4.953 18.478c0.167 0.623 0.834 0.986 1.489 0.808l5.54-1.483-0.754 2.818c-0.167 0.623 0.228 1.273 0.885 1.446l12.435 3.333c0.656 0.176 1.322-0.186 1.49-0.811l4.554-16.995c0.166-0.623-0.23-1.273-0.886-1.446zM3.171 5.934l12.006-3.214 4.444 16.588-12.006 3.214-4.444-16.588zM24.706 28.677l-10.448-2.857 0.822-3.070 5.982-1.605c0.656-0.173 1.055-0.823 0.886-1.446l-2.312-8.628 9.119 2.501-4.048 15.105z"></path>
</svg>
