<!-- Generated by IcoMoon.io -->
<svg version="1.1" xmlns="http://www.w3.org/2000/svg" width="30" height="32" viewBox="0 0 30 32">
<title>die</title>
<path d="M15.138 1.108c-3.938 0.738-13.662 8.246-12.308 9.477 0.369 0.369 3.815 0.123 7.754-0.615 6.646-1.231 14.031-6.031 14.031-8.985 0-1.108-3.446-1.108-9.477 0.123zM22.892 6.031c-3.2 3.446-3.446 4.062-2.585 10.831 1.108 10.215 2.215 11.569 5.908 7.508 2.708-2.954 2.954-3.938 2.338-12.554-0.246-5.169-0.985-9.354-1.354-9.354-0.492 0-2.462 1.6-4.308 3.569zM6.154 12.677c-3.077 0.862-5.415 1.846-5.292 2.462 0.123 0.492 0.615 3.815 0.985 7.508 1.231 9.477 1.354 9.477 10.338 7.877l7.754-1.477-0.862-6.154c-1.6-13.046-1.723-13.046-12.923-10.215z"></path>
</svg>
