<!-- Generated by IcoMoon.io -->
<svg version="1.1" xmlns="http://www.w3.org/2000/svg" width="22" height="32" viewBox="0 0 22 32">
<title>discard</title>
<path d="M0.736 8.313c0 3.972 0.147 7.136 0.294 7.062 0.184-0.037 4.708-2.428 10.115-5.26l9.821-5.149v-3.862h-20.23v7.209zM10.483 13.205l-9.563 5.039-0.11 1.913c-0.074 1.067 0.037 1.913 0.184 1.913s4.671-2.317 10.041-5.113l9.747-5.076 0.11-1.913c0.074-1.361 0-1.876-0.368-1.839-0.257 0.037-4.782 2.317-10.041 5.076zM10.851 20.745l-9.931 5.26-0.11 1.913c-0.074 1.030 0 1.876 0.147 1.876 0.331 0 19.347-9.894 19.752-10.299 0.184-0.147 0.257-1.103 0.184-2.133l-0.11-1.876-9.931 5.26zM14.529 27.513l-5.885 3.2 5.701 0.11c3.126 0.037 5.885 0 6.143-0.074 0.515-0.221 0.699-6.51 0.221-6.437-0.184 0-2.943 1.471-6.179 3.2z"></path>
</svg>
