<!-- Generated by IcoMoon.io -->
<svg version="1.1" xmlns="http://www.w3.org/2000/svg" width="30" height="32" viewBox="0 0 30 32">
<title>disrupt</title>
<path d="M1.316 4.471c-0.32 2.951-0.498 5.511-0.356 5.653 0.356 0.32 11.876 3.982 11.982 3.804 0.142-0.142-10.418-14.649-10.738-14.791-0.142-0.036-0.533 2.347-0.889 5.333zM24.782 2.693c-0.107 0.249-1.387 2.169-2.844 4.302l-2.631 3.84-2.204-3.662-2.169-3.662v5.369c0 7.111 0.391 6.72-7.68 7.502-3.307 0.32-6.116 0.676-6.258 0.782s1.422 1.173 3.449 2.347c2.062 1.173 3.733 2.276 3.733 2.489 0 0.178-1.28 1.387-2.88 2.631-1.564 1.244-2.773 2.311-2.667 2.418 0.142 0.178 7.609-1.244 8.071-1.529 0.142-0.071 0.462-0.747 0.676-1.493 1.387-4.267 5.404-8.569 11.627-12.302l2.204-1.316 0.107-4.053c0.107-3.769-0.071-4.8-0.533-3.662zM25.458 13.68c-5.404 1.28-10.524 6.72-11.591 12.409-0.604 3.271-0.64 3.2 1.884 3.2h2.24l0.391-1.956c0.249-1.067 0.676-2.489 0.996-3.164 1.529-3.236 4.942-5.76 8.391-6.151l1.742-0.213v-4.516l-1.316 0.036c-0.747 0.036-1.956 0.178-2.738 0.356z"></path>
</svg>
