<!-- Generated by IcoMoon.io -->
<svg version="1.1" xmlns="http://www.w3.org/2000/svg" width="25" height="32" viewBox="0 0 25 32">
<title>focus</title>
<path d="M8.681 2.44c-0.19 1.394-0.317 1.584-1.521 2.154-1.933 0.919-4.214 3.358-5.354 5.798-0.919 1.901-1.014 2.44-1.014 4.974s0.127 3.073 0.982 4.911c1.236 2.598 2.091 3.644 2.725 3.39 0.285-0.095 0.887-0.665 1.331-1.267l0.855-1.109-1.046-1.648c-1.869-3.010-1.552-7.065 0.792-9.695 0.507-0.602 1.236-1.267 1.584-1.426 0.57-0.317 0.602-0.253 0.475 0.95-0.063 0.729-0.032 1.299 0.063 1.299 0.57 0 8.871-4.531 8.649-4.721-0.444-0.38-7.984-5.101-8.143-5.101-0.095 0-0.253 0.665-0.38 1.489zM19.358 8.998l-1.394 1.426 0.824 0.982c1.141 1.331 1.933 4.151 1.679 5.956-0.253 1.838-1.648 4.404-2.947 5.386l-1.046 0.792v-1.331c0-0.697-0.063-1.299-0.158-1.299-0.57 0-8.713 4.562-8.491 4.752 0.127 0.158 2.059 1.426 4.309 2.82l4.024 2.566v-1.584c0-1.521 0.032-1.584 1.299-2.25 4.594-2.313 7.541-8.016 6.653-12.8-0.38-2.028-1.489-4.531-2.661-5.956l-0.729-0.855-1.362 1.394z"></path>
</svg>
