<!-- Generated by IcoMoon.io -->
<svg version="1.1" xmlns="http://www.w3.org/2000/svg" width="32" height="32" viewBox="0 0 32 32">
<title>indirect</title>
<path d="M11.628 2.463c-3.778 1.259-4.058 1.539-4.337 3.883-0.665 5.841 2.448 11.718 8.185 15.53 3.953 2.623 11.018 3.393 12.627 1.364 1.224-1.574 2.169-5.457 1.994-8.15-0.105-1.329-0.28-2.553-0.42-2.658-0.105-0.14-1.609 1.154-3.323 2.798-3.148 3.113-3.463 3.253-5.981 3.043-1.294-0.105-2.064-0.595-4.128-2.588-2.309-2.204-2.868-3.218-2.868-5.317 0-1.574 0.105-1.714 3.043-4.722 1.644-1.714 2.903-3.218 2.798-3.358-0.595-0.56-5.702-0.455-7.59 0.175zM18.833 6.416c-2.623 2.763-3.008 3.288-3.008 4.407 0 1.049 0.315 1.574 1.854 3.148 1.714 1.679 2.029 1.854 3.428 1.854 1.434-0.035 1.749-0.21 4.652-2.938 3.463-3.253 3.428-3.043 1.154-5.911-0.909-1.189-4.232-3.743-4.827-3.743-0.14 0-1.574 1.434-3.253 3.183zM23.59 8.48c0.839 0.874 1.014 1.259 0.804 2.029-0.385 1.574-1.189 2.169-2.833 2.169-1.154 0-1.609-0.175-2.029-0.769-0.804-1.154-0.7-2.623 0.315-3.603 1.154-1.189 2.448-1.119 3.743 0.175zM3.478 8.829c-2.239 3.813-2.518 8.954-0.735 12.942 2.623 5.841 10.249 9.304 16.755 7.555 1.854-0.49 4.547-1.749 4.862-2.274 0.105-0.14-1.014-0.35-2.518-0.455-3.113-0.175-5.352-1.049-9.234-3.673-4.128-2.763-7.031-7.485-7.765-12.767l-0.42-2.903-0.944 1.574z"></path>
</svg>
