<!-- Generated by IcoMoon.io -->
<svg version="1.1" xmlns="http://www.w3.org/2000/svg" width="30" height="32" viewBox="0 0 30 32">
<title>melee</title>
<path d="M5.195 1.167c-0.376 0.188-0.678 0.678-0.678 1.054s1.694 3.125 3.765 6.099c2.824 4.028 3.689 5.572 3.539 6.212s0.113 1.054 1.092 1.807c1.619 1.242 2.259 1.242 3.878-0.038 1.054-0.791 1.28-1.167 1.092-1.882-0.151-0.678 0.565-1.958 3.426-6.024 1.995-2.824 3.689-5.384 3.802-5.647 0.226-0.602-0.904-1.995-1.581-1.995-0.264 0-2.296 2.184-4.518 4.894-2.221 2.673-4.104 4.894-4.141 4.894-0.075 0-1.92-2.146-4.141-4.819-2.221-2.635-4.254-4.819-4.48-4.856-0.226-0.075-0.715 0.075-1.054 0.301zM8.546 17.845c-0.565 0.527-1.016 1.205-1.016 1.506s-0.527 0.941-1.167 1.393c-0.64 0.452-1.431 1.431-1.732 2.184s-1.129 1.958-1.807 2.673c-0.715 0.715-1.431 1.769-1.656 2.296-0.301 0.866-0.188 1.129 0.866 2.184 1.544 1.506 2.296 1.28 4.216-1.28 0.791-1.054 1.732-2.108 2.108-2.372s1.016-1.167 1.431-1.995c0.414-0.791 1.167-1.732 1.694-2.071 1.092-0.715 2.598-3.012 2.296-3.501-0.226-0.339-2.184-1.318-3.464-1.694-0.527-0.151-1.092 0.038-1.769 0.678zM17.882 17.656c-2.711 1.205-2.711 1.544-0.376 3.953 1.129 1.129 2.071 2.221 2.071 2.409 0 0.151 0.753 1.205 1.656 2.259 0.941 1.092 2.033 2.485 2.485 3.087 1.393 1.958 2.071 2.071 3.727 0.753 1.807-1.393 1.732-2.033-0.565-4.405-0.904-0.941-1.656-1.92-1.656-2.221 0-0.753-1.544-2.786-2.108-2.786-0.264 0-0.64-0.489-0.828-1.092-0.414-1.129-1.845-2.673-2.485-2.673-0.226 0-1.092 0.339-1.92 0.715z"></path>
</svg>
