<!-- Generated by IcoMoon.io -->
<svg version="1.1" xmlns="http://www.w3.org/2000/svg" width="32" height="32" viewBox="0 0 32 32">
<title>plot</title>
<path d="M7.197 30.245c0.47-1.504 1.18-3.622 2.131-6.682 4.147-0.657 5.863 0.522 8.496-4.181-2.137 0.654-4.714-1.213-4.576-2.024 0.139-0.809 5.995 0.584 9.829-4.861-4.833 1.066-6.379-1.281-5.756-1.635 1.439-0.818 5.708-0.34 7.985-2.557 1.173-1.141 1.723-3.916 1.245-4.905-0.573-1.196-4.069-2.981-5.996-2.813-1.927 0.167-4.95 7.338-5.848 7.283-0.895-0.057-1.077-3.214 0.489-6.148-1.65 0.731-4.674 3.001-5.622 4.942-1.766 3.611 0.165 11.897-0.453 12.191-0.62 0.296-2.705-3.801-3.327-5.659-0.85 2.848-0.87 5.7 1.613 9.489-0.936 2.486-1.448 5.348-1.526 6.803-0.037 1.163 1.109 1.412 1.316 0.755z"></path>
</svg>
