<!-- Generated by IcoMoon.io -->
<svg version="1.1" xmlns="http://www.w3.org/2000/svg" width="27" height="32" viewBox="0 0 27 32">
<title>ranged</title>
<path d="M22.928 2.639c-0.693 0.726-1.452 1.32-1.682 1.32-0.198 0-0.924 0.462-1.616 0.99l-1.254 0.99-1.518-1.386-1.122 0.858c-0.792 0.594-1.221 0.759-1.386 0.528-0.33-0.528-1.485 0.594-1.254 1.188 0.099 0.264 0 0.462-0.165 0.462-0.198 0-1.188 0.825-2.21 1.814s-2.078 1.814-2.309 1.814c-0.264 0-0.957 0.627-1.55 1.353-0.627 0.825-1.781 1.682-2.738 2.144-0.891 0.396-2.078 1.122-2.606 1.55l-0.99 0.792 1.122 1.353 1.122 1.32 0.924-0.66c0.528-0.363 1.188-1.023 1.518-1.485 0.825-1.254 2.738-3.134 2.969-2.903 0.099 0.099-0.363 0.627-1.023 1.188l-1.221 1.023 0.99 1.155 1.023 1.155-0.693 0.759c-0.693 0.726-0.429 1.452 0.33 0.99 0.165-0.099 0.825 0.033 1.452 0.297 0.924 0.396 1.221 0.726 1.518 1.913 1.584 6.070 1.748 6.565 2.54 7.192 1.353 1.056 2.474 0.726 3.365-0.957 0.396-0.726 0.231-1.155-1.584-4.75-1.748-3.431-1.979-4.058-1.55-4.454 0.396-0.396 0.66-0.396 1.617-0.033 1.485 0.528 2.012 0.297 4.784-2.012 1.221-1.023 2.045-1.979 2.045-2.342 0-0.825-3.299-4.948-3.728-4.685-0.165 0.099-0.264 0-0.165-0.264 0.066-0.264 0.858-0.858 1.748-1.32s2.144-1.452 2.771-2.144c0.66-0.726 1.88-1.814 2.771-2.408l1.55-1.056-1.056-1.287c-0.594-0.726-1.155-1.32-1.254-1.32s-0.792 0.594-1.485 1.32zM16.495 8.247c-1.452 1.287-2.012 1.583-1.946 1.056 0-0.363 2.606-2.375 3.068-2.375 0.198 0-0.297 0.594-1.122 1.32zM17.287 17.122l0.891 0.924-0.891 0.726c-1.056 0.825-1.089 0.825-2.045 0.165-0.858-0.594-0.924-1.353-0.165-2.177 0.726-0.825 1.155-0.759 2.21 0.363z"></path>
</svg>
