<!-- Generated by IcoMoon.io -->
<svg version="1.1" xmlns="http://www.w3.org/2000/svg" width="32" height="32" viewBox="0 0 32 32">
<title>resource</title>
<path d="M0.821 7.59v6.769h6.564l0.615-1.559c0.862-1.969 2.338-3.487 4.349-4.39l1.6-0.738v-6.851h-13.128v6.769zM17.805 1.354c-0.123 0.328-0.164 1.846-0.082 3.364l0.123 2.831 2.010 1.026c1.969 1.026 4.349 3.897 4.349 5.251 0 0.451 0.779 0.533 3.405 0.451l3.364-0.123v-13.128l-6.482-0.123c-5.169-0.082-6.482 0-6.687 0.451zM14.154 10.708c-4.431 1.272-5.251 7.836-1.313 10.215 2.421 1.518 5.785 0.862 7.631-1.477 3.282-4.144-1.149-10.297-6.318-8.738zM23.795 19.487c-0.903 2.010-2.544 3.651-4.636 4.513l-1.559 0.656 0.246 6.318h13.128v-13.005l-3.241-0.041-3.241-0.082-0.697 1.641zM0.821 24.615v6.564h13.128v-3.282c0-3.241-0.041-3.323-1.108-3.733-1.969-0.738-3.692-2.338-4.636-4.267l-0.903-1.846h-6.482v6.564z"></path>
</svg>
