<!-- Generated by IcoMoon.io -->
<svg version="1.1" xmlns="http://www.w3.org/2000/svg" width="32" height="32" viewBox="0 0 32 32">
<title>set-SoR</title>
<path d="M16 0.841c-8.468 0-15.333 6.865-15.333 15.333 0 0 0 0 0 0 0 8.468 6.865 15.333 15.333 15.333 0 0 0 0 0 0 8.468 0 15.333-6.865 15.333-15.333 0-0 0-0 0-0-0-8.468-6.865-15.333-15.333-15.333 0 0-0 0-0 0zM23.48 4.955c0 0 0 0 0 0 2.065 0 3.74 1.674 3.74 3.74 0 0 0 0 0 0s0 0 0 0c0 2.065-1.674 3.74-3.74 3.74 0 0 0 0-0 0s-0 0-0 0c-2.065 0-3.74-1.674-3.74-3.74 0 0 0 0 0-0s0-0 0-0c0-2.065 1.674-3.74 3.74-3.74 0 0 0 0 0 0z"></path>
</svg>
