<svg version="1.1" xmlns="http://www.w3.org/2000/svg" width="41" height="32" viewBox="0 0 41 32">
<title>set-EaW</title>
<path d="M0 16v-1.344q0-0.531 0.156-1t0.438-0.844h-0.031q0.219-0.313 0.422-0.641t0.391-0.641q0.063-0.094 0.078-0.203t0.016-0.203v-0.031q0.031-0.469 0.141-0.891t0.297-0.797v0.031q0.031-0.063 0.078-0.109t0.109-0.047v0q0.156 0 0.25-0.109t0.125-0.234v0q0-0.063 0.031-0.109t0.063-0.078v0l1.563-1.688q0.219-0.219 0.391-0.453t0.297-0.484v-0.031q0.094-0.156 0.203-0.297t0.234-0.234v0q0.313-0.344 0.625-0.672t0.625-0.672q0.5-0.5 0.969-1.063t0.875-1.156l0.031-0.063q0.125-0.188 0.328-0.313t0.453-0.156v0q0.156 0 0.281-0.016t0.281-0.016v0 0q0.063 0 0.094-0.047t0.031-0.109v0 0 0q0.031-0.188 0.125-0.375t0.25-0.344v0q0.188-0.188 0.406-0.328t0.469-0.203h0.031q0-0.031 0.031-0.031h0.063q0.063 0 0.141 0.031t0.109 0.094v0q0.125 0.125 0.25 0.234t0.25 0.234q0.094 0.125 0.172 0.25t0.141 0.25v0q0.031 0.063 0.031 0.109v0.078q0 0.094-0.031 0.172t-0.094 0.141v0q-0.156 0.188-0.328 0.359l-0.328 0.328q-0.094 0.094-0.156 0.203t-0.063 0.234v0q-0.031 0.5-0.188 0.953t-0.438 0.828v-0.031q-0.25 0.375-0.484 0.75t-0.484 0.75q-0.094 0.156-0.203 0.266t-0.203 0.234v0q-0.219 0.25-0.422 0.531t-0.359 0.594l-0.031 0.031q-0.281 0.5-0.609 0.953t-0.703 0.859h0.031q-0.438 0.5-0.859 1.016t-0.828 1.016q-0.125 0.188-0.25 0.344t-0.25 0.344q-0.063 0.094-0.047 0.141l0.047 0.141q0.188 0.188 0.344 0.406l0.313 0.438q0.156 0.25 0.391 0.375t0.516 0.125h1.625q0.063 0 0.094 0.031t0.031 0.094v0.25t0.047 0.078 0.109 0.047v0 0 0h0.813l0.031-0.031t0.031-0.063v-0.188q0-0.125 0.047-0.188t0.172-0.094l1.156-0.344 3.844-1.063q0.094 0 0.172-0.063t0.109-0.125v0q0.813-1.188 2.016-1.969t2.641-1.031h0.063q0.313-0.063 0.672-0.094t0.734-0.031h0.094q1.094 0 2.063 0.344t1.781 0.969h-0.031q0.5 0.375 0.906 0.828t0.719 0.984l0.031 0.031q0 0.031 0.047 0.063t0.078 0.063l5.125 1.406q0.125 0.031 0.172 0.094t0.047 0.188v0.063q0 0.125 0.031 0.172t0.188 0.047h1.125q0.094 0 0.125-0.031t0.031-0.125q0-0.25 0.047-0.297t0.328-0.047h1.438q0.094 0 0.188-0.047t0.156-0.109v0q0.156-0.25 0.328-0.469t0.328-0.438q0.031-0.063 0.063-0.141t0.031-0.172-0.031-0.172-0.063-0.141v0q-0.75-1.094-1.484-2.203t-1.547-2.141q-0.438-0.563-0.828-1.156t-0.766-1.25l-0.031-0.094q-0.156-0.219-0.297-0.422t-0.297-0.391v0q-0.188-0.188-0.344-0.422t-0.25-0.516v0q-0.031-0.063-0.047-0.109t-0.016-0.109 0.031-0.141 0.063-0.141v0-0.156q-0.188-0.281-0.375-0.578t-0.375-0.578q-0.094-0.156-0.188-0.344t-0.156-0.375v-0.031q0-0.031-0.016-0.063t-0.016-0.063q0-0.125 0.063-0.203t0.188-0.141v0q0.406-0.188 0.781-0.375 0.063-0.031 0.125-0.047t0.125-0.016 0.109 0.016 0.109 0.047v0q0.219 0.063 0.391 0.203t0.297 0.328v0q0.188 0.375 0.375 0.719 0.031 0.063 0.078 0.094t0.109 0.031v0q0.375 0.031 0.719 0.172t0.594 0.391v0l0.438 0.375t0.406 0.375v0q0.125 0.125 0.219 0.281t0.156 0.344v0q0.219 0.469 0.469 0.875t0.563 0.75v0q0.313 0.344 0.594 0.672t0.563 0.641q0.125 0.125 0.234 0.281t0.203 0.313v0q0.25 0.375 0.516 0.703t0.578 0.641v0q0.219 0.219 0.453 0.438t0.453 0.469q0.063 0.063 0.109 0.141t0.047 0.172v0q0.031 0.125 0.109 0.203t0.203 0.078v0q0.094 0 0.172 0.063t0.109 0.156v0q0.063 0.125 0.078 0.25t0.016 0.281-0.031 0.313-0.094 0.281v0q-0.031 0.031-0.031 0.078v0.078q0 0.063 0.031 0.125t0.094 0.125v0q0.469 0.438 0.797 1.031t0.422 1.281v0.031q0.031 0.188 0.047 0.422t0.016 0.453v2.938q-0.031 0.594-0.219 1.141t-0.5 0.984v0q-0.125 0.188-0.281 0.375t-0.313 0.344h0.031q-0.094 0.063-0.125 0.141t-0.031 0.172v0.125q0.031 0.125 0.063 0.234t0.094 0.203v-0.031q0.031 0.063 0.047 0.141t0.016 0.141q0 0.156-0.047 0.266t-0.141 0.203v0q-0.156 0.156-0.313 0.297t-0.313 0.297-0.297 0.328-0.266 0.391v0q-0.219 0.406-0.5 0.766t-0.594 0.672h-0.031l-1.156 1.219q-0.031 0-0.047 0.031l-0.016 0.031q-0.25 0.438-0.516 0.813t-0.609 0.688v0l-1.188 1.25q-0.156 0.156-0.297 0.328t-0.234 0.359v0.031q-0.125 0.25-0.297 0.453t-0.391 0.391v0q-0.094 0.063-0.234 0.109t-0.266 0.047q-0.094 0-0.172-0.016t-0.141-0.047v0h-0.063t-0.063 0.016-0.063 0.078v0q-0.063 0.156-0.141 0.313t-0.172 0.313q-0.125 0.281-0.391 0.469t-0.578 0.219v0q-0.094 0-0.188 0.016t-0.188 0.016v0 0 0q-0.125 0-0.219-0.031t-0.188-0.125v0l-0.281-0.281q0-0.031-0.016-0.063t-0.016-0.063v0q0-0.156-0.016-0.297t-0.016-0.266v-0.031q0-0.219 0.094-0.391t0.219-0.297h0.031q0.156-0.156 0.313-0.344t0.281-0.375v-0.031q0.031-0.031 0.063-0.109t0.031-0.141-0.031-0.141-0.063-0.109v0q-0.031-0.031-0.031-0.078v-0.078q0-0.063 0.016-0.094t0.016-0.063v0q0.188-0.375 0.375-0.719 0.094-0.156 0.156-0.344t0.063-0.375v0q0-0.031 0.031-0.078t0.063-0.047v0q0.406-0.25 0.734-0.563t0.578-0.688v0q0.094-0.094 0.156-0.188t0.125-0.156v0q0.219-0.25 0.391-0.531t0.328-0.563v-0.031q0.438-0.813 0.906-1.563t0.938-1.531q0.313-0.438 0.563-0.922t0.531-0.953q0.031-0.031 0.047-0.063t0.016-0.063-0.016-0.063-0.047-0.063v0q-0.125-0.156-0.234-0.328t-0.266-0.328q-0.063-0.094-0.188-0.156t-0.25-0.063l-0.031 0.031h-1.813q-0.031 0-0.063-0.031t-0.031-0.094v-0.219t-0.031-0.109-0.125-0.047h-1.25q-0.031 0-0.063 0.031t-0.031 0.063v0q-0.031 0.031-0.031 0.047v0.094t0.031 0.047v0q0 0.125-0.047 0.188t-0.172 0.094q-0.531 0.188-1.063 0.344-0.938 0.281-1.891 0.531t-1.891 0.469q-0.188 0.031-0.313 0.141t-0.219 0.266v0q-0.406 0.656-0.969 1.203t-1.188 0.953h-0.031q-0.5 0.281-1.047 0.469t-1.109 0.281h-0.031l-0.563 0.063t-0.563 0.031q-0.813 0-1.578-0.172t-1.484-0.484l0.063 0.031q-0.813-0.406-1.5-0.938t-1.219-1.219v0q-0.063-0.094-0.125-0.172t-0.125-0.172q-0.094-0.094-0.203-0.172t-0.266-0.109v0l-4.906-1.375q-0.156-0.031-0.172-0.078t-0.016-0.172v-0.063q0-0.156-0.031-0.188t-0.188-0.031h-0.688q-0.063 0-0.094 0.031t-0.031 0.125v0.125q0 0.125-0.047 0.172t-0.172 0.047h-2.063v-0.016t-0.031-0.016q-0.094 0-0.172 0.063t-0.141 0.125v0q-0.125 0.156-0.219 0.344t-0.125 0.406v0q-0.031 0.031-0.031 0.078v0.109q0 0.188 0.047 0.344t0.172 0.281v0q0.313 0.406 0.609 0.891t0.547 1.016l0.063 0.063q0.313 0.625 0.688 1.156t0.813 1v0l0.047 0.047t0.016 0.047v0q0.281 0.469 0.547 0.859t0.578 0.766v-0.031q0.188 0.25 0.359 0.516t0.359 0.547l0.031 0.063q0.094 0.156 0.219 0.297t0.25 0.266v0q0.188 0.188 0.359 0.422t0.297 0.453v0.031q0.063 0.063 0.078 0.156t0.016 0.156q0 0.094-0.016 0.188t-0.078 0.156v0l0.031 0.094q0.125 0.156 0.266 0.297t0.234 0.297q0.156 0.188 0.25 0.438t0.094 0.531v0.25q-0.031 0.156-0.125 0.297t-0.219 0.266v0q-0.031 0.031-0.078 0.031h-0.234q-0.156 0-0.219 0.047t-0.094 0.203q0 0.063-0.094 0.109t-0.188 0.016q-0.188 0-0.328-0.078t-0.266-0.203v0q-0.219-0.219-0.453-0.469t-0.453-0.469q-0.063-0.063-0.125-0.094l-0.125-0.063q-0.219-0.063-0.406-0.172t-0.344-0.266v0q-0.5-0.438-0.969-0.906-0.031-0.031-0.078-0.094t-0.078-0.094v-0.031q-0.438-0.813-0.953-1.531t-1.078-1.344v0q-0.375-0.406-0.766-0.828t-0.734-0.891q-0.219-0.313-0.438-0.609t-0.469-0.578q-0.188-0.219-0.359-0.406t-0.359-0.344h-0.031q-0.313-0.281-0.5-0.656t-0.188-0.813v-0.031q0-0.094-0.031-0.188l-0.063-0.188q-0.188-0.313-0.391-0.656t-0.422-0.656q-0.281-0.375-0.438-0.859t-0.156-1.016v0-1.344zM22.219 15.844v-0.156q0-0.281-0.141-0.5t-0.391-0.344v0q-0.156-0.094-0.344-0.141t-0.375-0.047q-0.156 0-0.297 0.016t-0.266 0.078h0.031q-0.281 0.094-0.453 0.281t-0.234 0.469v0q0 0.063-0.016 0.156t-0.016 0.188q0 0.125 0.031 0.234t0.063 0.234v0q0.094 0.375 0.406 0.641t0.75 0.266q0.219 0 0.406-0.063t0.344-0.188h-0.031q0.25-0.188 0.391-0.453t0.141-0.609v-0.063zM17.875 15.813h1.125q0.094 0 0.141-0.063t0.047-0.125v-0.031q0-0.125 0.047-0.25t0.141-0.219v0q0.094-0.125 0.078-0.203t-0.141-0.172l-0.063-0.031q-0.344-0.219-0.609-0.516t-0.422-0.641v0q-0.031-0.094-0.094-0.141t-0.156-0.078v0q-0.063-0.031-0.141-0.031t-0.141 0.063q-0.125 0.188-0.25 0.359t-0.25 0.359q-0.188 0.344-0.313 0.719t-0.125 0.813v0q0 0.125 0.016 0.156t0.141 0.031h0.969zM20.688 18.938v-1.063q0-0.094-0.031-0.141t-0.156-0.016h-0.063q-0.125 0-0.219-0.047t-0.156-0.109v0q-0.094-0.063-0.172-0.063t-0.172 0.094q-0.063 0.094-0.172 0.234t-0.234 0.266q-0.031 0.063-0.094 0.078t-0.125 0.047v0q-0.313 0.063-0.531 0.281t-0.281 0.531v0q-0.031 0.031-0.031 0.047v0.047t0.031 0.094 0.063 0.063v0q0.094 0.063 0.172 0.125t0.141 0.125q0.406 0.25 0.891 0.422t0.984 0.172h0.031q0.063 0 0.094-0.016t0.031-0.109v-1.063zM20.688 12.781v0-0.875q0-0.094-0.031-0.109t-0.094-0.016l-0.25 0.031q-0.563 0.063-1.047 0.297t-0.859 0.578v0q-0.063 0.031-0.109 0.094t-0.047 0.156q0 0.031 0.031 0.078t0.063 0.109v0l0.078 0.078t0.109 0.078v0q0.156 0.063 0.297 0.156t0.234 0.219v0q0.063 0.031 0.078 0.078t0.047 0.109v0q0.031 0.219 0.125 0.297t0.313 0.109q0.063 0 0.094 0.031t0.031 0.094 0.031 0.094 0.094 0l0.25-0.125q0.031-0.031 0.094-0.047t0.125-0.047h0.031q0.094-0.031 0.156-0.094t0.094-0.156v0q0.031-0.094 0.031-0.188v-0.188q0.031-0.219 0.031-0.422v-0.422zM21.375 20.156q0.188 0 0.359-0.047t0.328-0.109v0q0.375-0.156 0.766-0.359t0.797-0.422q0.031-0.031 0.047-0.063t-0.047-0.094q-0.25-0.219-0.5-0.453t-0.5-0.484q-0.125-0.125-0.219-0.25l-0.188-0.25v-0.031q-0.031-0.063-0.109-0.125t-0.172-0.094v0q-0.063 0-0.109-0.016t-0.078-0.016q-0.063 0-0.109 0.016t-0.078 0.016v0q-0.219 0.063-0.297 0.156t-0.078 0.281v2.156q-0.031 0.125 0 0.156t0.188 0.031v0zM17.813 16.219h-0.906q-0.125 0-0.156 0.047t-0.031 0.141 0.016 0.203 0.047 0.203v0q0.094 0.5 0.313 0.922t0.5 0.797v0q0.094 0.125 0.156 0.125t0.156-0.125l1.094-1.094q0.094-0.094 0.172-0.188t0.172-0.188q0.063-0.063 0.078-0.125t0.016-0.156q0-0.063-0.016-0.141t-0.078-0.109v0q-0.125-0.156-0.297-0.234t-0.359-0.078v0 0 0h-0.875zM25.094 16.25h-2.281q-0.063 0-0.094 0.016t-0.031 0.078v0.031q0 0.094-0.031 0.188t-0.094 0.156v0q-0.063 0.031-0.078 0.063t-0.016 0.094q0 0.031 0.016 0.078t0.078 0.078v0q0.063 0.063 0.109 0.156t0.047 0.219v0 0.25q0 0.031 0.016 0.063t0.016 0.063v0q0.125 0.094 0.266 0.203t0.297 0.203h0.031q0.219 0.094 0.391 0.203t0.328 0.266v0l0.031 0.016t0.063 0.016 0.063-0.016l0.031-0.016q0.125-0.156 0.219-0.313t0.125-0.313v-0.031q0.063-0.156 0.094-0.328t0.094-0.359q0.063-0.281 0.156-0.547t0.156-0.516v0zM25.125 15.781l-0.031-0.063q-0.156-0.313-0.266-0.672t-0.172-0.766v-0.031q-0.063-0.25-0.156-0.453t-0.25-0.391v0q-0.063-0.063-0.109-0.063t-0.109 0.063l-0.125 0.156-0.688 0.656q-0.156 0.156-0.313 0.297t-0.313 0.266v0.031q-0.125 0.063-0.203 0.172t-0.078 0.266q0 0.031 0.016 0.063t0.016 0.063v0q0.031 0.188 0.125 0.313t0.375 0.125h2.156zM23.656 12.844v-0.063q-0.281-0.125-0.563-0.281t-0.594-0.281q-0.219-0.156-0.516-0.25t-0.578-0.188h-0.031q-0.094 0-0.141 0.016t-0.047 0.109v2.094q0 0.125 0.063 0.172t0.156 0.047q0.125 0 0.25 0.047t0.25 0.141v0q0.094 0.063 0.172 0.047t0.172-0.109q0.031-0.094 0.094-0.172t0.125-0.141v0q0.25-0.281 0.531-0.563l0.594-0.594t0.063-0.031v0 0z"></path>
</svg>
