<!-- Generated by IcoMoon.io -->
<svg version="1.1" xmlns="http://www.w3.org/2000/svg" width="32" height="32" viewBox="0 0 32 32">
<title>set-TPG</title>
<path d="M28.748 29.177l-0.21-0.12q-0.060-0.060-0.12-0.15t-0.060-0.18v-0.449q0-0.090-0.015-0.15t-0.075-0.12v0l-1.378-1.707q-0.060-0.060-0.135-0.105t-0.165-0.045h-0.030q-0.090 0-0.165-0.030t-0.135-0.090v0l-0.689-0.839q-0.030-0.030-0.060-0.090t-0.030-0.12v0l-0.15-1.018q0-0.060-0.030-0.12t-0.060-0.090v0l-1.318-1.647-0.329 0.359-0.659-0.839q-0.030-0.060-0.045-0.12t-0.045-0.12v0-0.569q0-0.030-0.015-0.090t-0.045-0.090v0l-0.389-0.599-0.030-0.030-0.299-0.419-0.359-0.030-0.449-0.539q-0.060-0.060-0.135-0.090t-0.165-0.030h-0.12l-0.659 0.18h-0.030l-0.749 0.27q-0.030 0-0.045 0.015t-0.045 0.015v0l-1.977 1.228q-0.090 0.060-0.135 0.15t-0.045 0.21q0 0.060 0.015 0.12t0.075 0.12v0l1.557 2.096q0.030 0.030 0.075 0.060t0.105 0.060v0l0.719 0.299q0.060 0.030 0.105 0.060t0.075 0.090v0l0.509 0.719q0.030 0.030 0.045 0.090t0.045 0.090v0l0.030 0.419q0 0.060 0.015 0.105t0.075 0.105v0l1.198 1.557q0.060 0.060 0.15 0.105t0.18 0.045v0 0h0.090q0.090 0 0.18 0.045t0.15 0.105v0l0.18 0.24q0.060 0.060 0.075 0.12t0.015 0.15v0 0 0 0.15q0 0.060 0.030 0.135t0.090 0.105v0l2.486 2.935 0.21-0.12 0.359 0.27 0.12 0.060t0.12 0.030q0.090 0 0.165-0.030t0.105-0.090v0zM18.715 16.689l0.779 0.988q-0.509 0.509-1.048 0.973t-1.078 0.883l-0.060 0.030q-0.12 0.060-0.255 0.12t-0.255 0.090l-0.030 0.030h-0.359l-2.216-3.145-10.182-13.686q-0.060-0.090-0.075-0.21t-0.045-0.24v0q-0.030-0.060-0.030-0.135v-0.284t0.030-0.12v0q0-0.090 0.030-0.18t0.090-0.18v0l0.869-0.749q0.090-0.060 0.21-0.105t0.24-0.075h0.030q0.030-0.030 0.060-0.030h0.15t0.090 0.030h-0.030q0.15 0.060 0.255 0.24l0.105 0.18 10.392 12.638z"></path>
</svg>
