<!-- Generated by IcoMoon.io -->
<svg version="1.1" xmlns="http://www.w3.org/2000/svg" width="32" height="32" viewBox="0 0 32 32">
<title>set-AW</title>
<path d="M8.716 0.745c-1.9 1.265-3.564 2.813-4.898 4.569-1.964 2.57-2.998 4.864-3.466 7.653-0.329 1.958-0.312 3.523 0.058 5.603 0.618 3.495 1.496 5.58 3.258 7.769 1.71 2.12 3.876 3.604 6.539 4.482 0.843 0.277 2.848 0.699 4.205 0.884 0.479 0.069 1.011 0.144 1.19 0.179 0.404 0.075 0.757 0.075 1.155 0 0.173-0.029 0.705-0.11 1.178-0.173 1.461-0.202 3.385-0.612 4.332-0.924 1.496-0.503 3.217-1.427 4.39-2.374 0.624-0.503 1.473-1.363 2.051-2.085 1.687-2.097 2.588-4.228 3.24-7.671 0.162-0.872 0.179-1.080 0.208-2.518 0.023-1.259 0.012-1.71-0.069-2.339-0.387-3.102-1.415-5.62-3.367-8.254-1.334-1.802-3.050-3.431-4.95-4.713-0.381-0.254-0.728-0.485-0.774-0.514s0.133 0.196 0.399 0.497c1.063 1.201 1.681 2.432 2.033 4.038 0.116 0.537 0.127 0.762 0.127 1.993 0 0.999-0.029 1.554-0.098 1.981-0.237 1.473-0.641 2.859-1.213 4.182l-0.306 0.716 0.162 0.399c0.653 1.577 1.005 3.009 1.121 4.517l0.040 0.537h-0.283c-0.156 0.006-1.681-0.040-3.391-0.098-2.097-0.064-3.096-0.116-3.084-0.162 0.017-0.029 0.843-1.346 1.843-2.917s1.866-2.94 1.923-3.033c0.058-0.098-1.184 1.115-2.761 2.686l-2.871 2.859v-0.347c0-0.52-0.572-15.058-0.589-15.082-0.012-0.006-0.162 3.431-0.329 7.648-0.173 4.217-0.329 7.682-0.352 7.711-0.017 0.023-1.323-1.248-2.894-2.83-1.571-1.577-2.825-2.83-2.79-2.784 0.139 0.173 3.899 6.129 3.882 6.146-0.012 0.006-1.288 0.040-2.848 0.081-1.554 0.035-2.992 0.081-3.188 0.098l-0.364 0.035v-0.497c0-1.178 0.358-2.726 0.988-4.28l0.283-0.699-0.289-0.641c-0.514-1.155-0.982-2.715-1.184-3.945-0.046-0.3-0.116-0.982-0.156-1.513-0.191-2.801 0.56-5.089 2.258-6.874 0.266-0.277 0.468-0.508 0.456-0.508-0.017 0-0.375 0.231-0.803 0.514zM10.536 20.419c1.652 0.427 3.009 0.791 3.021 0.803 0.029 0.029-3.743 4.771-3.801 4.771-0.168 0-1.167-1.484-1.617-2.397-0.566-1.155-0.89-2.334-0.959-3.5l-0.035-0.566 0.196 0.052c0.11 0.029 1.548 0.404 3.194 0.838zM25.213 19.997c-0.052 0.693-0.196 1.508-0.358 2.068-0.347 1.201-1.167 2.686-2.108 3.818l-0.283 0.347-1.993-2.495c-1.097-1.369-1.987-2.501-1.97-2.513 0.040-0.046 6.469-1.687 6.614-1.692 0.133-0.006 0.133 0 0.098 0.468zM15.070 26.235c-0.069 2.045-0.139 3.726-0.144 3.731-0.023 0.029-1.161-0.63-1.814-1.046-1.149-0.739-2.42-1.779-2.986-2.449l-0.237-0.289 2.634-1.848c1.45-1.022 2.651-1.843 2.657-1.837 0.012 0.012-0.035 1.692-0.11 3.737zM20.043 24.658c1.253 0.866 2.287 1.606 2.299 1.646 0.023 0.098-1.305 1.381-1.941 1.871-0.578 0.439-1.837 1.23-2.709 1.698l-0.537 0.289v-0.168c0-0.087-0.064-1.658-0.144-3.483s-0.144-3.483-0.144-3.685v-0.358l0.451 0.312c0.243 0.168 1.473 1.017 2.726 1.877z"></path>
</svg>
