<!-- Generated by IcoMoon.io -->
<svg version="1.1" xmlns="http://www.w3.org/2000/svg" width="32" height="32" viewBox="0 0 32 32">
<title>set-LEG</title>
<path d="M13.65-1.275c-0.4 0.425-0.8 0.75-0.875 0.725-0.525-0.050-0.775 0.1-0.775 0.475 0 0.25-1.25 1.7-2.8 3.25-2.75 2.75-2.775 2.775-3.375 2.4-0.6-0.4-0.65-0.375-3.225 2.2-1.425 1.425-2.6 2.7-2.6 2.85s0.95 1.225 2.125 2.375c1.7 1.675 2.4 2.625 3.375 4.475 0.85 1.575 1.25 2.65 1.25 3.25 0 1.275 1.275 2.525 2.525 2.525 0.575 0 1.775 0.45 3.375 1.275 2.025 1.025 2.875 1.65 4.675 3.425l2.2 2.175 2.65-2.675c2.6-2.625 2.625-2.7 2.25-3.275s-0.325-0.65 2.4-3.375c1.55-1.55 3-2.8 3.25-2.8 0.225 0 0.425-0.125 0.425-0.25 0-0.15 0-0.325 0-0.45 0.025-0.1 0.375-0.525 0.8-0.975 0.475-0.5 0.7-0.95 0.625-1.175-0.225-0.575-1.025-0.5-1.575 0.125-0.25 0.3-0.725 0.625-1.025 0.75-0.325 0.125-0.575 0.35-0.575 0.525 0 0.2-1.3 1.625-2.875 3.2-2.25 2.25-2.925 2.8-3.175 2.55-0.425-0.425-0.975-0.375-1.575 0.2l-0.525 0.5-1.45-1.475-1.475-1.475 0.525-0.675c0.55-0.7 0.525-0.9-0.15-1.675-0.425-0.5-0.25-0.875 1.175-2.45 0.425-0.475 1.425-1.675 2.225-2.7 0.775-1.025 2.575-3.3 4-5.075 1.4-1.8 2.55-3.35 2.55-3.475 0-0.4-1.525-2-1.9-2-0.2 0-3.15 2.225-6.55 4.95s-6.325 5.025-6.475 5.125c-0.175 0.125-0.625-0.050-1.075-0.35l-0.75-0.575-1.25 1.2-1.475-1.45-1.475-1.475 0.5-0.675c0.425-0.575 0.45-0.775 0.2-1.25-0.275-0.525-0.1-0.775 2.525-3.4 1.575-1.575 3-2.85 3.175-2.85s0.375-0.2 0.475-0.45c0.075-0.225 0.425-0.725 0.75-1.1 1.225-1.3 0.2-2.275-1.025-0.975z"></path>
</svg>
