<!-- Generated by IcoMoon.io -->
<svg version="1.1" xmlns="http://www.w3.org/2000/svg" width="25" height="32" viewBox="0 0 25 32">
<title>shield</title>
<path d="M8.533 1.135c-3.475 0.998-5.643 3.372-6.641 7.398-0.31 1.273-0.723 2.581-0.895 2.89-0.172 0.344-0.31 3.819-0.31 7.742v7.157l3.406 1.789c1.892 0.998 3.51 1.824 3.613 1.824 0.344 0 0.241-4.714-0.172-6.606-0.551-2.512-1.204-3.716-2.065-3.716-0.998 0-2.065 0.619-2.959 1.652l-0.791 0.929v-3.2c0-3.613 0-3.579 2.856-2.615 3.475 1.17 4.611 4.060 4.232 10.529-0.103 2.065-0.103 3.716 0.034 3.716 0.172 0 0.619 0.103 1.067 0.206l0.757 0.206v-15.794l-1.961-0.241c-1.101-0.138-3.062-0.516-4.404-0.826-1.858-0.482-2.443-0.791-2.512-1.308-0.103-0.619 0.206-0.654 10.426-0.654 10.46 0 10.495 0 10.495 0.723 0 0.619-0.344 0.826-2.133 1.273-1.204 0.31-3.131 0.654-4.301 0.791l-2.168 0.241v7.845c0 6.090 0.103 7.88 0.447 7.88 1.101-0.034 1.239-0.516 1.17-5.161-0.069-4.095 0.034-4.852 0.654-6.228 0.791-1.686 1.961-2.718 3.888-3.338 2.409-0.826 2.443-0.791 2.443 2.925-0.034 3.166-0.069 3.303-0.551 2.443-0.619-1.17-2.374-2.133-3.406-1.858-1.135 0.275-1.892 2.753-2.133 6.847-0.172 2.718-0.103 3.338 0.275 3.303 0.275 0 2.030-0.895 3.923-1.961l3.441-1.961 0.103-6.297c0.069-4.852-0.034-6.538-0.413-7.398-0.275-0.619-0.654-1.892-0.895-2.822-1.342-5.815-4.37-8.361-10.151-8.637-1.652-0.069-3.406 0.034-4.37 0.31z"></path>
</svg>
