<!-- Generated by IcoMoon.io -->
<svg version="1.1" xmlns="http://www.w3.org/2000/svg" width="27" height="32" viewBox="0 0 27 32">
<title>special</title>
<path d="M12.931 1.848c-0.098 0.522-0.261 1.535-0.359 2.286-0.196 1.273-0.294 1.371-1.469 1.567-2.057 0.359-5.127 1.992-6.694 3.592-0.784 0.816-1.927 2.482-2.514 3.69-0.98 1.992-1.078 2.416-1.078 5.29s0.098 3.298 1.078 5.29c1.371 2.808 3.559 4.996 6.269 6.269 1.894 0.914 2.449 1.012 5.225 1.012 2.808 0 3.298-0.098 5.29-1.045 2.743-1.306 4.931-3.494 6.269-6.302 0.914-1.894 1.012-2.449 1.012-5.224 0-2.873-0.098-3.298-1.078-5.29-1.829-3.722-5.551-6.661-9.208-7.282-1.175-0.196-1.241-0.261-1.469-1.731-0.457-3.135-0.914-3.918-1.273-2.122zM12.082 9.75c0 0.327-0.098 1.469-0.196 2.547l-0.229 1.992-1.829-0.751c-1.012-0.425-1.861-0.718-1.927-0.686-0.033 0.065 0.294 0.914 0.751 1.927l0.784 1.829-1.502 0.686c-0.816 0.359-1.6 0.653-1.763 0.653-0.588 0-0.261 0.62 0.425 0.849 0.392 0.098 1.176 0.424 1.763 0.653l1.11 0.457-0.816 1.861c-0.457 1.012-0.784 1.894-0.718 1.959s0.947-0.261 1.959-0.686l1.796-0.816 0.751 1.763c0.425 0.98 0.849 1.796 0.947 1.796s0.522-0.816 0.947-1.796l0.751-1.763 1.796 0.816c1.012 0.424 1.861 0.751 1.927 0.718 0.033-0.065-0.261-0.947-0.686-1.992l-0.784-1.861 1.078-0.457c0.588-0.229 1.371-0.555 1.763-0.653 0.686-0.229 1.012-0.849 0.424-0.849-0.163 0-0.947-0.294-1.763-0.653l-1.502-0.686 0.784-1.829c0.457-1.012 0.784-1.894 0.718-1.927-0.065-0.065-0.882 0.196-1.796 0.588s-1.763 0.653-1.829 0.555c-0.065-0.065-0.261-1.208-0.359-2.514l-0.261-2.384 0.947 0.229c3.918 0.947 6.988 4.865 6.988 8.914 0 3.265-1.829 6.335-4.833 8.131-1.339 0.784-1.861 0.882-4.31 0.882s-2.971-0.098-4.31-0.882c-3.004-1.796-4.833-4.865-4.833-8.131 0-3.886 2.808-7.673 6.498-8.816 1.273-0.359 1.339-0.359 1.339 0.327z"></path>
</svg>
