<!-- Generated by IcoMoon.io -->
<svg version="1.1" xmlns="http://www.w3.org/2000/svg" width="20" height="32" viewBox="0 0 20 32">
<title>unique</title>
<path d="M8.586 4.035c-0.766 2.214-1.363 4.598-1.363 5.28 0 0.766-1.192 2.384-2.725 3.662l-2.81 2.214 2.299 1.788c1.192 1.022 2.47 3.066 2.81 4.598 1.618 7.92 3.832 12.092 3.832 7.153 0-3.662 2.64-9.963 4.939-11.752l2.299-1.788-1.788-1.448c-2.47-1.959-3.491-4.088-4.173-8.856-0.341-2.214-0.937-4.173-1.277-4.428-0.426-0.255-1.277 1.363-2.044 3.577z"></path>
</svg>
