<svg xmlns="http://www.w3.org/2000/svg" width="1325" height="1024">
  <path fill="#ffffff"
        d="M0 512v-43q0-17 5-32t14-27h-1q7-10 13.5-20.5T44 369q2-3 2.5-6.5t.5-6.5v-1q1-15 4.5-28.5T61 301v1q1-2 2.5-3.5T67 297q5 0 8-3.5t4-7.5q0-2 1-3.5t2-2.5l50-54q7-7 12.5-14.5T154 196v-1q3-5 6.5-9.5t7.5-7.5q10-11 20-21.5t20-21.5q16-16 31-34t28-37l1-2q4-6 10.5-10t14.5-5q5 0 9-.5t9-.5q2 0 3-1.5t1-3.5q1-6 4-12t8-11q6-6 13-10.5T355 1h1q0-1 1-1h2q2 0 4.5 1t3.5 3q4 4 8 7.5t8 7.5q3 4 5.5 8t4.5 8q1 2 1 3.5V41q0 3-1 5.5t-3 4.5q-5 6-10.5 11.5L369 73q-3 3-5 6.5t-2 7.5q-1 16-6 30.5T342 144v-1q-8 12-15.5 24T311 191q-3 5-6.5 8.5T298 207q-7 8-13.5 17T273 243l-1 1q-9 16-19.5 30.5T230 302h1q-14 16-27.5 32.5T177 367q-4 6-8 11t-8 11q-2 3-1.5 4.5l1.5 4.5q6 6 11 13l10 14q5 8 12.5 12t16.5 4h52q2 0 3 1t1 3v8l1.5 2.5 3.5 1.5h26l1-1 1-2v-6q0-4 1.5-6t5.5-3l37-11 123-34q3 0 5.5-2t3.5-4q26-38 64.5-63t84.5-33h2q10-2 21.5-3t23.5-1h3q35 0 66 11t57 31h-1q16 12 29 26.5t23 31.5l1 1q0 1 1.5 2t2.5 2l164 45q4 1 5.5 3t1.5 6v2q0 4 1 5.5t6 1.5h36q3 0 4-1t1-4q0-8 1.5-9.5t10.5-1.5h46q3 0 6-1.5t5-3.5q5-8 10.5-15t10.5-14q1-2 2-4.5t1-5.5-1-5.5-2-4.5q-24-35-47.5-70.5T1066 247q-14-18-26.5-37t-24.5-40l-1-3q-5-7-9.5-13.5T995 141q-6-6-11-13.5t-8-16.5q-1-2-1.5-3.5t-.5-3.5 1-4.5 2-4.5v-5q-6-9-12-18.5T953 53q-3-5-6-11t-5-12v-1q0-1-.5-2t-.5-2q0-4 2-6.5t6-4.5q13-6 25-12 2-1 4-1.5t4-.5 3.5.5T989 2q7 2 12.5 6.5T1011 19q6 12 12 23 1 2 2.5 3t3.5 1q12 1 23 5.5t19 12.5l14 12 13 12q4 4 7 9t5 11q7 15 15 28t18 24q10 11 19 21.5t18 20.5q4 4 7.5 9t6.5 10q8 12 16.5 22.5T1229 264q7 7 14.5 14t14.5 15q2 2 3.5 4.5t1.5 5.5q1 4 3.5 6.5t6.5 2.5q3 0 5.5 2t3.5 5q2 4 2.5 8t.5 9-1 10-3 9q-1 1-1 2.5v2.5q0 2 1 4t3 4q15 14 25.5 33t13.5 41v1q1 6 1.5 13.5t.5 14.5v94q-1 19-7 36.5t-16 31.5q-4 6-9 12t-10 11h1q-3 2-4 4.5t-1 5.5v4q1 4 2 7.5t3 6.5v-1q1 2 1.5 4.5t.5 4.5q0 5-1.5 8.5t-4.5 6.5q-5 5-10 9.5t-10 9.5-9.5 10.5-8.5 12.5q-7 13-16 24.5t-19 21.5h-1l-37 39q-1 0-1.5 1l-.5 1q-8 14-16.5 26t-19.5 22l-38 40q-5 5-9.5 10.5T1076 946v1q-4 8-9.5 14.5T1054 974q-3 2-7.5 3.5t-8.5 1.5q-3 0-5.5-.5t-4.5-1.5h-2l-2 .5-2 2.5q-2 5-4.5 10t-5.5 10q-4 9-12.5 15t-18.5 7q-3 0-6 .5t-6 .5q-4 0-7-1t-6-4l-9-9q0-1-.5-2t-.5-2q0-5-.5-9.5t-.5-8.5v-1q0-7 3-12.5t7-9.5h1q5-5 10-11t9-12v-1q1-1 2-3.5t1-4.5-1-4.5-2-3.5q-1-1-1-2.5V919q0-2 .5-3t.5-2q6-12 12-23 3-5 5-11t2-12q0-1 1-2.5t2-1.5q13-8 23.5-18t18.5-22q3-3 5-6t4-5q7-8 12.5-17t10.5-18v-1q14-26 29-50t30-49q10-14 18-29.5t17-30.5q1-1 1.5-2t.5-2-.5-2-1.5-2q-4-5-7.5-10.5T1149 589q-2-3-6-5t-8-2l-1 1h-58q-1 0-2-1t-1-3v-7l-1-3.5-4-1.5h-40q-1 0-2 1t-1 2q-1 1-1 1.5v3l1 1.5q0 4-1.5 6t-5.5 3q-17 6-34 11-30 9-60.5 17T863 628q-6 1-10 4.5t-7 8.5q-13 21-31 38.5T777 710h-1q-16 9-33.5 15t-35.5 9h-1l-18 2-18 1q-26 0-50.5-5.5T572 716l2 1q-26-13-48-30t-39-39q-2-3-4-5.5t-4-5.5q-3-3-6.5-5.5T464 628l-157-44q-5-1-5.5-2.5t-.5-5.5v-2q0-5-1-6t-6-1h-22q-2 0-3 1t-1 4v4q0 4-1.5 5.5T261 583h-66v-.5l-1-.5q-3 0-5.5 2t-4.5 4q-4 5-7 11t-4 13q-1 1-1 2.5v3.5q0 6 1.5 11t5.5 9q10 13 19.5 28.5T216 699l2 2q10 20 22 37t26 32l1.5 1.5.5 1.5q9 15 17.5 27.5T304 825v-1q6 8 11.5 16.5T327 858l1 2q3 5 7 9.5t8 8.5q6 6 11.5 13.5T364 906v1q2 2 2.5 5t.5 5q0 3-.5 6t-2.5 5l1 3q4 5 8.5 9.5t7.5 9.5q5 6 8 14t3 17v8q-1 5-4 9.5t-7 8.5q-1 1-2.5 1H371q-5 0-7 1.5t-3 6.5q0 2-3 3.5t-6 .5q-6 0-10.5-2.5t-8.5-6.5q-7-7-14.5-15T304 981q-2-2-4-3l-4-2q-7-2-13-5.5t-11-8.5q-16-14-31-29-1-1-2.5-3t-2.5-3v-1q-14-26-30.5-49T171 834q-12-13-24.5-26.5T123 779q-7-10-14-19.5T94 741q-6-7-11.5-13T71 717h-1q-10-9-16-21t-6-26v-1q0-3-1-6l-2-6q-6-10-12.5-21T19 615q-9-12-14-27.5T0 555v-43zm711-5v-5q0-9-4.5-16T694 475q-5-3-11-4.5t-12-1.5q-5 0-9.5.5T653 472h1q-9 3-14.5 9t-7.5 15q0 2-.5 5t-.5 6q0 4 1 7.5t2 7.5q3 12 13 20.5t24 8.5q7 0 13-2t11-6h-1q8-6 12.5-14.5T711 509v-2zm-139-1h36q3 0 4.5-2t1.5-4v-1q0-4 1.5-8t4.5-7q3-4 2.5-6.5T618 472l-2-1q-11-7-19.5-16.5T583 434q-1-3-3-4.5t-5-2.5q-2-1-4.5-1t-4.5 2q-4 6-8 11.5t-8 11.5q-6 11-10 23t-4 26q0 4 .5 5t4.5 1h31zm90 100v-34q0-3-1-4.5t-5-.5h-2q-4 0-7-1.5t-5-3.5q-3-2-5.5-2t-5.5 3q-2 3-5.5 7.5T618 579q-1 2-3 2.5t-4 1.5q-10 2-17 9t-9 17q-1 1-1 1.5v1.5l1 3 2 2q3 2 5.5 4t4.5 4q13 8 28.5 13.5T657 644h1q2 0 3-.5t1-3.5v-34zm0-197v-28q0-3-1-3.5t-3-.5l-8 1q-18 2-33.5 9.5T589 406q-2 1-3.5 3t-1.5 5q0 1 1 2.5t2 3.5l2.5 2.5 3.5 2.5q5 2 9.5 5t7.5 7q2 1 2.5 2.5t1.5 3.5q1 7 4 9.5t10 3.5q2 0 3 1t1 3 1 3 3 0l8-4q1-1 3-1.5t4-1.5h1q3-1 5-3t3-5q1-3 1-6v-6q1-7 1-13.5V409zm22 236q6 0 11.5-1.5T706 640q12-5 24.5-11.5T756 615q1-1 1.5-2t-1.5-3q-8-7-16-14.5T724 580q-4-4-7-8l-6-8v-1q-1-2-3.5-4t-5.5-3q-2 0-3.5-.5t-2.5-.5q-2 0-3.5.5t-2.5.5q-7 2-9.5 5t-2.5 9v69q-1 4 0 5t6 1zM570 519h-29q-4 0-5 1.5t-1 4.5.5 6.5 1.5 6.5q3 16 10 29.5t16 25.5q3 4 5 4t5-4l35-35q3-3 5.5-6t5.5-6q2-2 2.5-4t.5-5q0-2-.5-4.5T619 529q-4-5-9.5-7.5T598 519h-28zm233 1h-73q-2 0-3 .5t-1 2.5v1q0 3-1 6t-3 5q-2 1-2.5 2t-.5 3q0 1 .5 2.5t2.5 2.5q2 2 3.5 5t1.5 7v8q0 1 .5 2t.5 2q4 3 8.5 6.5t9.5 6.5h1q7 3 12.5 6.5T770 597l1 .5 2 .5 2-.5 1-.5q4-5 7-10t4-10v-1q2-5 3-10.5t3-11.5q2-9 5-17.5t5-16.5zm1-15l-1-2q-5-10-8.5-21.5T789 457v-1q-2-8-5-14.5t-8-12.5q-2-2-3.5-2t-3.5 2l-4 5-22 21q-5 5-10 9.5t-10 8.5v1q-4 2-6.5 5.5T714 488q0 1 .5 2t.5 2q1 6 4 10t12 4h69zm-47-94v-2q-9-4-18-9t-19-9q-7-5-16.5-8t-18.5-6h-1q-3 0-4.5.5T678 381v67q0 4 2 5.5t5 1.5q4 0 8 1.5t8 4.5q3 2 5.5 1.5t5.5-3.5q1-3 3-5.5t4-4.5q8-9 17-18l19-19 2-1z"/>
</svg>
